<svg width="30" height="31" viewBox="0 0 30 31" fill="none" xmlns="http://www.w3.org/2000/svg">
<path d="M15 29.375C7.34925 29.375 1.125 23.1508 1.125 15.5C1.125 7.84925 7.34925 1.625 15 1.625C22.6508 1.625 28.875 7.84925 28.875 15.5C28.875 23.1508 22.6508 29.375 15 29.375Z" fill="#E6E7EF"/>
<path d="M15 2C22.4438 2 28.5 8.05625 28.5 15.5C28.5 22.9438 22.4438 29 15 29C7.55625 29 1.5 22.9438 1.5 15.5C1.5 8.05625 7.55625 2 15 2ZM15 1.25C7.13025 1.25 0.75 7.63025 0.75 15.5C0.75 23.3698 7.13025 29.75 15 29.75C22.8698 29.75 29.25 23.3698 29.25 15.5C29.25 7.63025 22.8698 1.25 15 1.25Z" fill="#989DBF"/>
<path d="M15 27.125C8.58975 27.125 3.375 21.9102 3.375 15.5C3.375 9.08975 8.58975 3.875 15 3.875C21.4102 3.875 26.625 9.08975 26.625 15.5C26.625 21.9102 21.4102 27.125 15 27.125Z" fill="white"/>
<path d="M15 4.25C21.2032 4.25 26.25 9.29675 26.25 15.5C26.25 21.7032 21.2032 26.75 15 26.75C8.79675 26.75 3.75 21.7032 3.75 15.5C3.75 9.29675 8.79675 4.25 15 4.25ZM15 3.5C8.37225 3.5 3 8.87225 3 15.5C3 22.1277 8.37225 27.5 15 27.5C21.6277 27.5 27 22.1277 27 15.5C27 8.87225 21.6277 3.5 15 3.5Z" fill="#989DBF"/>
<path d="M19.9792 8.14246L15 15.5L18.75 19.25" stroke="#989DBF" stroke-width="2" stroke-miterlimit="10" stroke-linecap="round"/>
<path d="M15 14.375C14.7016 14.375 14.4155 14.4935 14.2045 14.7045C13.9935 14.9155 13.875 15.2016 13.875 15.5C13.875 15.7984 13.9935 16.0845 14.2045 16.2955C14.4155 16.5065 14.7016 16.625 15 16.625C15.2984 16.625 15.5845 16.5065 15.7955 16.2955C16.0065 16.0845 16.125 15.7984 16.125 15.5C16.125 15.2016 16.0065 14.9155 15.7955 14.7045C15.5845 14.4935 15.2984 14.375 15 14.375Z" fill="#989DBF"/>
<path d="M15 5.75C14.8011 5.75 14.6103 5.82902 14.4697 5.96967C14.329 6.11032 14.25 6.30109 14.25 6.5C14.25 6.69891 14.329 6.88968 14.4697 7.03033C14.6103 7.17098 14.8011 7.25 15 7.25C15.1989 7.25 15.3897 7.17098 15.5303 7.03033C15.671 6.88968 15.75 6.69891 15.75 6.5C15.75 6.30109 15.671 6.11032 15.5303 5.96967C15.3897 5.82902 15.1989 5.75 15 5.75ZM15 23.75C14.8011 23.75 14.6103 23.829 14.4697 23.9697C14.329 24.1103 14.25 24.3011 14.25 24.5C14.25 24.6989 14.329 24.8897 14.4697 25.0303C14.6103 25.171 14.8011 25.25 15 25.25C15.1989 25.25 15.3897 25.171 15.5303 25.0303C15.671 24.8897 15.75 24.6989 15.75 24.5C15.75 24.3011 15.671 24.1103 15.5303 23.9697C15.3897 23.829 15.1989 23.75 15 23.75Z" fill="#C0C3D9"/>
<path d="M24 14.75C23.8011 14.75 23.6103 14.829 23.4697 14.9697C23.329 15.1103 23.25 15.3011 23.25 15.5C23.25 15.6989 23.329 15.8897 23.4697 16.0303C23.6103 16.171 23.8011 16.25 24 16.25C24.1989 16.25 24.3897 16.171 24.5303 16.0303C24.671 15.8897 24.75 15.6989 24.75 15.5C24.75 15.3011 24.671 15.1103 24.5303 14.9697C24.3897 14.829 24.1989 14.75 24 14.75Z" fill="#C0C3D9"/>
<path d="M6 14.75C5.80109 14.75 5.61032 14.829 5.46967 14.9697C5.32902 15.1103 5.25 15.3011 5.25 15.5C5.25 15.6989 5.32902 15.8897 5.46967 16.0303C5.61032 16.171 5.80109 16.25 6 16.25C6.19891 16.25 6.38968 16.171 6.53033 16.0303C6.67098 15.8897 6.75 15.6989 6.75 15.5C6.75 15.3011 6.67098 15.1103 6.53033 14.9697C6.38968 14.829 6.19891 14.75 6 14.75V14.75Z" fill="#C0C3D9"/>
</svg>
