<svg width="150" height="27" viewBox="0 0 150 27" fill="none" xmlns="http://www.w3.org/2000/svg">
<g clip-path="url(#clip0_1445_53692)">
<path d="M15.0895 16.8875H5.78008V12.9649H15.0895C16.7008 12.9649 17.5831 13.7545 17.5831 14.9262C17.5831 16.0979 16.7008 16.8875 15.0895 16.8875ZM5.78008 4.86489H14.5397C16.1765 4.86489 17.0972 5.50168 17.0972 6.69885C17.0972 7.90876 16.1893 8.53282 14.5397 8.53282H5.78008V4.86489ZM19.7443 10.4941C21.087 9.85734 22.7238 8.35451 22.7238 5.97291C22.7238 2.15216 19.9872 0.0762124 15.1535 0.0634766H0.0639648V21.7017H15.665C20.5371 21.7017 23.3248 19.4092 23.3248 15.5885C23.3376 13.0286 21.688 11.2838 19.7443 10.4941Z" fill="#7178A5"/>
<path d="M67.8772 17.1933C66.1125 17.1933 65.2941 16.5947 65.2941 15.1428V10.4433H71.624V5.79467H65.2941V1.5791H59.6036V5.79467H58.6317H52.3018V1.5791H46.6112V5.79467H43.2609V10.4433H46.6112V16.7348C46.6112 20.3772 49.3478 22.0074 53.1458 22.0074C55.8823 22.0074 57.9156 21.5234 59.4118 20.9503L58.3504 16.5437C57.289 16.9385 56.0742 17.1805 54.8849 17.1805C53.1202 17.1805 52.3018 16.5819 52.3018 15.13V10.4433H56.266H59.6164V16.7348C59.6164 20.3772 62.3529 22.0074 66.1509 22.0074C68.8875 22.0074 70.9207 21.5234 72.4169 20.9503L71.3555 16.5565C70.2813 16.9513 69.0665 17.1933 67.8772 17.1933Z" fill="#7178A5"/>
<path d="M97.8006 8.45658V5.80752H92.0205V21.7146H97.8006V15.6905C97.8006 12.3155 100.141 11.1311 103.338 11.1438C104.22 11.1438 104.616 11.2075 105.345 11.3221V5.84573C104.834 5.78205 104.31 5.7311 103.581 5.7311C100.959 5.71837 99.1944 6.53346 97.8006 8.45658Z" fill="#7178A5"/>
<path d="M123.325 11.5002C123.325 14.9644 121.496 16.9257 117.698 16.9257C113.9 16.9257 112.072 14.9644 112.072 11.5002V0.0761719H106.113V12.0733C106.113 18.2884 110.217 22.0455 117.698 22.0455C125.179 22.0455 129.284 18.2757 129.284 12.0733V0.0761719H123.325V11.5002Z" fill="#7178A5"/>
<path d="M139.962 17.537C137.583 17.537 135.703 16.0214 135.703 13.8563V13.678C135.703 11.5129 137.596 9.99738 139.962 9.99738C142.302 9.99738 144.246 11.3219 144.246 13.7545C144.246 16.1997 142.302 17.537 139.962 17.537ZM141.356 5.45068C138.836 5.45068 136.854 6.35493 135.844 7.47568V5.82002H130.064V26.9361H135.844V20.0714C136.854 21.1922 138.824 22.0964 141.343 22.0964C146.79 22.0964 149.923 18.3648 149.923 13.7799C149.936 9.19502 146.803 5.45068 141.356 5.45068Z" fill="#7178A5"/>
<path d="M37.6599 15.6776L42.954 17.2186C41.688 20.288 37.9284 22.071 33.8108 22.071C27.9156 22.071 23.8491 18.6705 23.8491 13.729C23.8491 8.96582 27.9668 5.43799 33.7468 5.43799C39.8594 5.43799 43.1842 9.25874 43.1842 13.7545V15.1427H29.5524C30.1023 16.7729 31.6368 17.6771 33.7852 17.6771C35.5115 17.6644 37.0205 16.9767 37.6599 15.6776ZM29.642 11.997H37.3274C37.1484 10.9144 35.844 9.7045 33.6317 9.7045C31.8414 9.71723 30.3069 10.4686 29.642 11.997Z" fill="#7178A5"/>
<path d="M85.6906 15.6776L90.9847 17.2186C89.7188 20.288 85.9592 22.071 81.8415 22.071C75.9464 22.071 71.8799 18.6705 71.8799 13.729C71.8799 8.96582 75.9975 5.43799 81.7776 5.43799C87.8901 5.43799 91.2149 9.25874 91.2149 13.7545V15.1427H77.5832C78.1331 16.7729 79.6676 17.6771 81.8159 17.6771C83.5423 17.6644 85.0512 16.9767 85.6906 15.6776ZM77.6727 11.997H85.3581C85.1791 10.9144 83.8748 9.7045 81.6625 9.7045C79.885 9.71723 78.3377 10.4686 77.6727 11.997Z" fill="#7178A5"/>
</g>
<defs>
<clipPath id="clip0_1445_53692">
<rect width="150" height="27" fill="white"/>
</clipPath>
</defs>
</svg>
