<svg width="566" height="97" viewBox="0 0 566 97" fill="none" xmlns="http://www.w3.org/2000/svg">
<g clip-path="url(#clip0_2026_41509)">
<path fill-rule="evenodd" clip-rule="evenodd" d="M140.027 60.7214L131.551 57.774L114.233 46.7169L96.9153 29.7651V18.3419L85.492 6.91868V1.75626H79.5974L65.9682 4.33747L57.4923 18.3419L51.2315 29.7651L39.8083 40.8223V46.7169L31.3324 55.1928L28.385 52.2455L5.53856 63.3026L0.0100098 66.2499V77.6731L6.27082 80.6205L17.3279 75.0919L31.6985 77.307V88.3641L40.1744 91.3115L51.5976 80.2544H60.0735V85.7829L57.1262 91.3115L61.1811 96.84L74.4441 91.3115L71.4967 83.577L74.4441 69.5725H79.9726V75.1011L88.4485 78.0484L91.3959 86.5243L97.2905 92.0529L103.185 86.5243L120.137 80.9958L114.608 75.4672L108.714 64.044H102.819L105.766 72.5199L108.714 75.4672L102.819 80.6297H96.9244L91.0297 69.5725V63.6779L79.6065 52.6208L85.5012 47.0922L74.0779 36.0351L79.6065 30.5066V18.3511L85.5012 12.8225L93.9771 21.2984L91.0297 29.7743L96.9244 35.3029L108.348 52.2546L119.771 57.7832L134.141 72.1538L142.617 75.1011V80.6297H148.146L154.041 75.1011L142.617 69.5725L140.036 60.7305L140.027 60.7214ZM179.825 80.6205H195.303V0.291748L179.825 7.6601V80.6205ZM238.049 21.6645C231.788 21.6645 226.992 23.8796 224.044 26.827V23.1382H208.566V80.9866H224.411V49.2981C224.411 39.3486 228.099 36.4012 234.36 36.4012C240.621 36.4012 244.31 39.7147 244.31 50.0304V81.3528H259.788V48.5567C259.788 31.6049 253.152 21.6554 238.049 21.6554V21.6645ZM297.746 49.6734C296.273 54.0944 294.799 59.623 294.058 62.5703C293.316 59.623 291.842 54.4606 290.369 49.6734L281.893 22.7721H264.941L286.314 80.6205H302.158L323.165 22.7721H306.579L297.737 49.6734H297.746ZM353.755 21.6645C338.277 21.6645 325.746 34.1953 325.746 51.8794C325.746 69.5634 337.902 82.0942 355.229 82.0942C361.489 82.0942 371.814 79.8791 378.075 71.0371L366.286 62.5612C363.338 66.2499 358.917 67.7236 355.604 67.7236C349.343 67.7236 343.073 64.4101 341.975 57.0418H380.665C381.032 55.202 381.032 54.4606 381.032 52.2546C380.29 34.9367 369.974 21.6737 353.764 21.6737L353.755 21.6645ZM341.599 45.2433C342.707 39.7147 347.128 34.9276 353.023 34.9276C360.391 34.9276 364.08 39.7147 364.812 45.2433H341.599ZM416.766 44.5019C412.345 43.3943 403.869 42.6621 403.869 38.6072C403.869 36.3921 406.45 34.5523 413.077 34.5523C416.766 34.5523 422.285 36.3921 427.081 38.6072L434.816 28.2915C428.921 24.6027 420.445 21.6554 413.077 21.6554C399.814 21.6554 388.757 28.6576 388.757 39.3394C388.757 54.0761 402.386 55.9251 413.809 58.4971C416.757 58.8633 423.017 59.6047 423.017 63.6596C423.017 66.6069 419.329 68.822 413.809 68.822C407.173 68.822 401.654 66.2408 396.125 63.2934L388.391 73.6091C394.652 77.664 403.869 81.7189 413.077 81.7189C425.608 81.7189 438.129 75.0828 438.129 62.9273C438.129 50.0304 427.448 47.0831 416.757 44.5019H416.766ZM475.356 36.3921C480.884 36.3921 485.305 39.3394 487.886 43.3943L500.042 34.1862C494.513 26.4517 485.305 21.6554 474.989 21.6554C458.038 21.6554 444.409 35.2846 444.409 51.8702C444.409 68.4559 458.413 82.085 474.989 82.085C485.305 82.085 494.147 77.2979 499.676 69.5542L487.52 60.7122C484.939 64.7671 480.518 67.3483 474.989 67.3483C466.147 67.3483 459.877 60.3461 459.877 51.8702C460.244 43.0282 466.514 36.3921 475.356 36.3921ZM535.419 21.6554C518.467 21.6554 504.838 35.2846 504.838 51.8702C504.838 68.4559 518.843 81.7189 535.419 81.7189C551.996 81.7189 566 68.4559 566 51.8702C566 35.2846 552.371 21.6554 535.419 21.6554ZM535.419 67.3483C526.577 67.3483 520.307 60.3461 520.307 51.8702C520.307 43.3943 526.568 36.3921 535.419 36.3921C544.27 36.3921 550.531 43.3943 550.531 51.8702C550.531 60.3461 544.27 66.9822 535.419 67.3483Z" fill="#575C90"/>
</g>
<defs>
<clipPath id="clip0_2026_41509">
<rect width="566" height="97" fill="white"/>
</clipPath>
</defs>
</svg>
