<svg width="396" height="108" viewBox="0 0 396 108" fill="none" xmlns="http://www.w3.org/2000/svg">
<g clip-path="url(#clip0_2026_41543)">
<path d="M167.712 79.8467C163.541 82.2791 158.871 83.5304 153.178 83.5304C136.758 83.5304 127.227 72.1473 127.227 52.9051C127.227 39.2237 132.447 30.1261 139.4 25.4081C143.366 22.7714 149.136 21.0349 154.151 21.0349C158.117 21.0349 162.428 21.9415 165.626 23.6716C167.846 24.8527 168.895 25.6124 171.466 27.8342L163.88 38.0362C160.752 35.1186 157.336 33.3885 154.49 33.3885C147.536 33.3885 144.396 39.4344 144.396 53.3201C144.396 61.0962 145.438 65.7503 147.383 68.3168C148.982 70.4044 151.694 71.6557 154.336 71.6557C157.957 71.6557 161.225 70.1299 165.051 66.7909L165.959 65.9546L173.053 75.3267C170.833 77.7591 169.784 78.5188 167.692 79.8403H167.712V79.8467Z" fill="#575C90"/>
<path d="M219.544 75.1926C215.022 80.3319 209.105 83.4538 199.919 83.4538C183.78 83.4538 173.2 71.3684 173.2 52.7008C173.2 34.0333 183.914 21.5903 199.919 21.5903C208.407 21.5903 215.015 24.5079 220.165 30.5411C224.969 36.0954 227.054 42.6265 227.054 52.2029C226.983 62.4049 224.617 69.3574 219.544 75.1862V75.1926ZM206.885 36.1656C205.356 34.2248 202.919 33.0437 200.136 33.0437C196.446 33.0437 193.388 35.3356 192.134 39.0896C191.092 42.2115 190.535 46.3804 190.535 52.2859C190.535 59.1617 191.226 64.2308 192.48 67.2825C193.868 70.5448 197.354 72.1473 200.412 72.1473C207.16 72.1473 210.083 66.1014 210.083 52.0816C210.013 44.0949 208.97 38.8853 206.885 36.1784V36.1656Z" fill="#575C90"/>
<path d="M270.82 83.805C268.875 82.4196 267.2 80.466 266.163 77.9761C262.338 81.6599 256.773 83.6709 250.447 83.6709C242.099 83.6709 234.864 79.7127 232.913 74.0179C232.005 71.3812 231.659 68.1891 231.659 62.2134V24.1632L247.031 21.2456V59.4363C247.031 64.7863 247.517 67.5634 248.284 69.1531C249.122 70.7492 251.412 71.9303 253.779 71.9303C257.604 71.9303 262.268 69.1531 263.451 66.2355V24.5016L278.343 21.3797V66.7207C278.343 70.6789 279.596 74.7074 281.963 77.4846L270.833 83.805H270.826H270.82Z" fill="#575C90"/>
<path d="M331.826 76.7184C327.789 81.0214 322.435 83.4538 315.891 83.4538C311.235 83.4538 306.846 82.2727 303.437 80.3319C303.642 81.7173 303.642 83.4538 303.642 85.1967V103.73L288.616 107.688V39.0194C288.616 31.2433 288.475 29.0216 287.708 24.0227L301.55 21.5903C302.113 23.678 302.458 25.274 302.593 27.1446C305.234 23.8823 311.215 21.5903 317.273 21.5903C321.444 21.5903 325.762 22.9757 329.024 25.2038C335.427 29.5068 340.084 37.1488 340.084 50.8239C340.084 63.5988 337.992 70.0533 331.806 76.7248H331.826V76.7184ZM321.604 39.23C320.42 35.9677 317.983 34.2312 314.164 34.2312C310.345 34.2312 306.578 35.8272 303.795 38.7448V67.6272C305.887 69.3638 309.29 71.0939 312.418 71.0939C320.075 71.0939 323.132 65.8843 323.132 52.2731C323.132 46.6486 322.646 42.1413 321.604 39.2173V39.23Z" fill="#575C90"/>
<path d="M387.419 85.1967C383.799 83.6709 380.53 81.0342 379.072 77.9761C377.888 79.1572 376.634 80.2681 375.451 81.098C372.528 83.1857 368.357 84.3604 363.483 84.3604C350.261 84.3604 343.026 77.625 343.026 65.8269C343.026 51.8709 352.698 45.41 371.619 45.41C372.803 45.41 373.839 45.41 375.093 45.5505V43.1181C375.093 36.5231 373.839 34.295 368.14 34.295C363.131 34.295 357.355 36.7274 350.952 41.0304L344.344 29.9218C347.472 27.981 349.839 26.7999 354.016 25.057C359.856 22.6246 364.801 21.5903 370.295 21.5903C380.313 21.5903 387.131 25.2741 389.498 31.9392C390.336 34.3716 390.682 36.2422 390.541 42.6329L390.195 62.5645C390.055 69.0956 390.541 71.8728 395.761 75.7608L387.413 85.2031L387.419 85.1967ZM374.127 56.1739C363.342 56.1739 359.594 58.1147 359.594 65.2012C359.594 69.849 362.517 72.9773 366.483 72.9773C369.406 72.9773 372.323 71.4514 374.626 68.9488L374.831 56.1739H374.127Z" fill="#575C90"/>
<path d="M116.218 58.7084C113.09 54.5586 102.35 48.883 102.35 48.883C107 48.5191 112.182 46.8783 112.182 46.8783C116.858 45.2823 117.037 42.9456 117.037 42.9456C117.363 40.4621 112.822 38.4192 112.822 38.4192C107.813 35.7633 97.7637 34.295 97.7637 34.295C102.043 31.9583 104.653 29.8068 104.653 29.8068C108.983 26.0209 107.8 24.1823 107.8 24.1823C107.186 21.935 102.472 21.4307 102.472 21.4307C98.1539 20.8433 91.0279 22.0691 91.0279 22.0691C93.7593 18.5897 94.738 15.3784 94.738 15.3784C95.4864 12.7991 94.4821 11.5734 94.4821 11.5734C93.3115 9.5687 89.1409 10.437 89.1409 10.437C83.0128 11.867 78.791 14.6889 78.791 14.6889C79.565 11.9373 79.4307 7.9088 79.4307 7.9088C79.2644 6.37657 78.9253 4.35915 77.5884 3.38235C75.8613 2.11189 73.437 3.15252 71.825 4.14846C70.213 5.15079 68.8441 6.53618 67.5904 7.93433C67.3665 8.18332 66.1959 9.26226 66.2471 9.52401C65.8313 8.04286 65.3323 6.58725 64.7439 5.15718C63.8739 3.02483 61.6926 0.439209 59.2107 0.311523C56.7288 0.432824 54.5539 3.02483 53.6775 5.15718C53.089 6.58725 52.5901 8.04286 52.1743 9.52401C52.2255 9.26864 51.0549 8.18332 50.831 7.93433C49.5773 6.52979 48.2084 5.15079 46.5964 4.14846C44.9844 3.15252 42.5601 2.11827 40.833 3.38235C39.5024 4.35915 39.1634 6.37019 38.9907 7.9088C38.9907 7.9088 38.8564 11.9373 39.6304 14.6889C39.6304 14.6889 35.4086 11.867 29.2805 10.437C29.2805 10.437 25.1226 9.55593 23.9392 11.5734C23.9392 11.5734 22.9414 12.7991 23.6834 15.3784C23.6834 15.3784 24.6621 18.5897 27.3935 22.0691C27.3935 22.0691 20.2739 20.8433 15.9498 21.4307C15.9498 21.4307 11.2354 21.935 10.6213 24.1823C10.6213 24.1823 9.43792 26.0209 13.7685 29.8068C13.7685 29.8068 16.3847 31.9647 20.6577 34.295C20.6577 34.295 10.6021 35.7697 5.59989 38.4192C5.59989 38.4192 1.05823 40.4621 1.38446 42.9456C1.38446 42.9456 1.56357 45.2823 6.23956 46.8783C6.23956 46.8783 11.4209 48.5191 16.0713 48.883C16.0713 48.883 5.33123 54.5522 2.20324 58.7084C2.20324 58.7084 -0.310666 61.211 0.316211 63.5029C0.316211 63.5029 0.859931 66.395 8.504 65.8715C8.504 65.8715 14.4529 65.5076 21.6812 63.388C21.6556 63.3944 21.6364 63.4072 21.6364 63.4072C21.6364 63.4072 14.4721 71.5088 12.3996 75.8373C12.3996 75.8373 7.74279 83.1729 10.5445 86.0394C10.5445 86.0394 11.8431 87.744 16.9093 86.1798C16.9093 86.1798 24.112 83.7411 31.7496 77.5547C31.7496 77.5547 28.5577 86.4033 28.2186 93.3111C28.2186 93.3111 27.5278 100.072 31.0204 101.464C31.0204 101.464 33.9565 102.919 39.5024 97.1863C39.5024 97.1863 46.1998 89.9019 50.0186 82.5217C50.492 86.6204 51.1572 90.7574 52.2063 94.7475C52.8652 97.2565 53.6711 99.7336 54.8226 102.07C55.6733 103.807 56.991 106.239 59.1979 106.367C61.4048 106.246 62.7161 103.813 63.5732 102.07C64.7183 99.7336 65.5306 97.2502 66.1895 94.7475C67.2386 90.7574 67.9038 86.6204 68.3772 82.5217C72.2024 89.9146 78.8934 97.1863 78.8934 97.1863C84.4393 102.919 87.3754 101.464 87.3754 101.464C90.868 100.072 90.1772 93.3111 90.1772 93.3111C89.8381 86.4097 86.6462 77.5547 86.6462 77.5547C94.2838 83.7411 101.487 86.1798 101.487 86.1798C106.553 87.744 107.851 86.0394 107.851 86.0394C110.653 83.1729 105.996 75.8373 105.996 75.8373C103.924 71.5088 96.7594 63.4072 96.7594 63.4072C96.7594 63.4072 96.7402 63.4072 96.7146 63.388C103.943 65.5076 109.892 65.8715 109.892 65.8715C117.529 66.395 118.08 63.5029 118.08 63.5029C118.713 61.211 116.193 58.7084 116.193 58.7084H116.212H116.218ZM103.719 57.7826C103.719 57.7826 102.58 62.1239 85.9361 57.2336C85.9361 57.2336 76.5586 54.3032 72.4775 51.9602C72.4775 51.9602 81.0682 66.4844 81.8934 78.091C81.8934 78.091 82.4435 83.773 79.7505 84.8072C79.7505 84.8072 76.7697 86.1224 70.7504 78.5443C70.7504 78.5443 63.5157 69.7851 59.2619 56.7803C55.0145 69.7914 47.7734 78.5443 47.7734 78.5443C41.7477 86.1224 38.7732 84.8072 38.7732 84.8072C36.0802 83.7666 36.6303 78.091 36.6303 78.091C37.4555 66.4844 46.0463 51.9602 46.0463 51.9602C41.9652 54.3032 32.5876 57.2336 32.5876 57.2336C15.9434 62.1239 14.8048 57.7826 14.8048 57.7826C13.4806 54.233 23.0821 48.6085 23.0821 48.6085C30.3807 43.8267 41.575 40.3536 41.575 40.3536C28.5385 36.6252 23.7282 32.1626 23.7282 32.1626C19.6918 28.7726 21.016 27.1829 21.016 27.1829C23.0501 23.7545 34.4682 25.9124 34.4682 25.9124C42.8991 27.4893 47.4599 29.7174 47.4599 29.7174C43.9418 23.2246 43.1422 17.6256 43.1422 17.6256C42.0099 10.5263 45.0996 9.91345 45.0996 9.91345C47.3768 9.12181 50.6711 12.3267 50.6711 12.3267C57.0742 18.9025 59.2491 25.4591 59.2491 25.4591C59.2491 25.4591 61.4304 18.9025 67.8271 12.3267C67.8271 12.3267 71.1342 9.13457 73.3986 9.91345C73.3986 9.91345 76.4946 10.5263 75.356 17.6256C75.356 17.6256 74.5564 23.2183 71.0382 29.7174C71.0382 29.7174 75.5991 27.4893 84.0299 25.9124C84.0299 25.9124 95.448 23.7545 97.4822 27.1829C97.4822 27.1829 98.8063 28.7726 94.77 32.1626C94.77 32.1626 89.9597 36.6252 76.9232 40.3536C76.9232 40.3536 88.1174 43.8203 95.4161 48.6085C95.4161 48.6085 105.018 54.233 103.693 57.7826H103.713H103.719Z" fill="#575C90"/>
</g>
<defs>
<clipPath id="clip0_2026_41543">
<rect width="396" height="108" fill="white"/>
</clipPath>
</defs>
</svg>
