<svg width="102" height="15" viewBox="0 0 102 15" fill="none" xmlns="http://www.w3.org/2000/svg">
<g clip-path="url(#clip0_2606_42126)">
<path d="M10.207 0.108215C14.3193 0.108215 17.6529 3.44188 17.6529 7.55409C17.6529 11.6663 14.3193 15 10.207 15V0.108215Z" fill="#F66135"/>
<path d="M4.93649 0C8.87391 1.1857 11.1053 5.33763 9.91962 9.27509C8.73489 13.2125 4.58197 15.4439 0.644531 14.2582L4.93649 0Z" fill="#F66135"/>
<path d="M21.9492 1.8183H26.3683C28.6891 1.8183 30.0367 3.16588 30.0367 4.95735C30.0367 6.04971 29.4905 6.93653 28.6375 7.43105V7.53337C29.422 7.8571 30.4289 8.71012 30.4289 10.297C30.4289 12.4976 28.6891 13.7608 26.71 13.7608H21.9502V1.8183H21.9492ZM26.0952 6.73194C27.136 6.73194 27.7844 6.10039 27.7844 5.1798C27.7844 4.25923 27.1191 3.69517 26.13 3.69517H24.134V6.73194H26.0962H26.0952ZM26.1469 11.8333C27.2561 11.8333 28.0407 11.2871 28.0407 10.1103C28.0407 8.93357 27.1191 8.42115 26.0783 8.42115H24.134V11.8333H26.1469Z" fill="#070707"/>
<path d="M31.3487 9.32574C31.3487 6.51046 33.0548 4.56604 35.5116 4.56604C37.0637 4.56604 37.9346 5.48762 38.2415 5.94839H38.3606V4.78848H40.5782V13.7627H38.3944V12.6197H38.2752C38.0191 12.9951 37.2176 13.9842 35.5791 13.9842C33.0706 13.9842 31.3477 12.1073 31.3477 9.32676M38.4113 9.29301C38.4113 7.6038 37.3875 6.57994 35.9882 6.57994C34.589 6.57994 33.6 7.70607 33.6 9.29301C33.6 10.8799 34.5721 11.9892 36.0051 11.9892C37.4381 11.9892 38.4103 10.7945 38.4103 9.29301" fill="#070707"/>
<path d="M42.1641 2.29598C42.1641 1.52835 42.7271 1.01593 43.5285 1.01593C44.3299 1.01593 44.893 1.52736 44.893 2.29598C44.893 3.06461 44.3299 3.59291 43.5285 3.59291C42.7271 3.59291 42.1641 3.09838 42.1641 2.29598ZM42.4202 4.78657H44.6378V13.7608H42.4202V4.78757V4.78657Z" fill="#070707"/>
<path d="M46.4805 4.78748H48.5788V6.25524H48.7149C49.0048 5.55614 49.8241 4.75372 51.0694 4.75372H51.8887V6.86896H50.9671C49.551 6.86896 48.6979 7.90964 48.6979 9.51346V13.7617H46.4805V4.78748Z" fill="#070707"/>
<path d="M52.5039 9.32574C52.5039 6.49358 54.3976 4.56604 57.0252 4.56604C59.909 4.56604 61.4781 6.69914 61.4781 9.22348V9.9236H54.6536C54.7222 11.2881 55.6608 12.2096 57.0938 12.2096C58.1861 12.2096 59.0213 11.6982 59.3293 10.9643H61.394C60.9499 12.7896 59.3459 13.9842 57.0263 13.9842C54.382 13.9842 52.5049 12.005 52.5049 9.32676M59.3642 8.35455C59.2618 7.14303 58.3233 6.3416 57.0263 6.3416C55.7293 6.3416 54.8256 7.22842 54.6884 8.35455H59.3631H59.3642Z" fill="#070707"/>
<path d="M62.5 11.0656H64.548C64.6332 11.8333 65.2471 12.2424 66.2538 12.2424C67.2609 12.2424 67.8577 11.7985 67.8577 11.1679C67.8577 9.25729 62.7057 11.0656 62.7057 7.31184C62.7057 5.79347 64.0198 4.56506 66.2371 4.56506C68.1823 4.56506 69.6325 5.55513 69.7686 7.34565H67.8063C67.7039 6.69716 67.1923 6.27116 66.2195 6.27116C65.3146 6.27116 64.7345 6.66341 64.7345 7.24332C64.7345 8.94941 70.007 7.15793 70.007 11.0478C70.007 12.7538 68.6243 13.9822 66.2195 13.9822C63.8141 13.9822 62.5857 12.8392 62.5 11.0646" fill="#070707"/>
<path d="M71.7148 1.8183H75.7407C79.5454 1.8183 81.8323 4.27512 81.8323 7.7558C81.8323 11.4579 79.5465 13.7618 75.7407 13.7618H71.7148V1.8183ZM75.6566 11.7816C77.7545 11.7816 79.4779 10.5532 79.4779 7.75478C79.4779 4.95636 77.7716 3.79647 75.6566 3.79647H73.9841V11.7827H75.6566V11.7816Z" fill="#070707"/>
<path d="M82.8398 9.32574C82.8398 6.49358 84.7336 4.56604 87.3613 4.56604C90.245 4.56604 91.8141 6.69914 91.8141 9.22348V9.9236H84.9897C85.0582 11.2881 85.9968 12.2096 87.4298 12.2096C88.5222 12.2096 89.3579 11.6982 89.6648 10.9643H91.7295C91.2854 12.7896 89.682 13.9842 87.3618 13.9842C84.7175 13.9842 82.8404 12.005 82.8404 9.32676M89.6997 8.35455C89.5973 7.14303 88.6588 6.3416 87.3618 6.3416C86.0654 6.3416 85.1616 7.22842 85.0245 8.35455H89.6986H89.6997Z" fill="#070707"/>
<path d="M92.0703 4.78754H94.391L96.5232 11.1173H96.6603L98.7753 4.78754H101.147L97.8539 13.7618H95.3462L92.0703 4.78754Z" fill="#070707"/>
</g>
<defs>
<clipPath id="clip0_2606_42126">
<rect width="100.714" height="15" fill="white" transform="translate(0.644531)"/>
</clipPath>
</defs>
</svg>
