<?xml version="1.0" standalone="no"?>
<!DOCTYPE svg PUBLIC "-//W3C//DTD SVG 20010904//EN"
 "http://www.w3.org/TR/2001/REC-SVG-20010904/DTD/svg10.dtd">
<svg version="1.0" xmlns="http://www.w3.org/2000/svg"
 width="130" height="60" viewBox="0 0 1220.000000 310.000000"
 preserveAspectRatio="xMidYMid meet">

<g transform="translate(0.000000,310.000000) scale(0.100000,-0.100000)"
fill="#000000" stroke="none">
<path d="M6454 2698 c-3 -4 -11 -186 -19 -405 -8 -219 -17 -434 -20 -478 -3
-44 -13 -208 -20 -365 -8 -157 -19 -347 -26 -423 -6 -77 -8 -142 -4 -145 12
-12 536 -10 540 2 2 6 9 139 15 296 6 157 15 373 20 480 5 107 14 296 19 420
6 124 15 277 20 340 6 63 13 152 16 197 l6 82 -271 3 c-150 2 -274 0 -276 -4z"/>
<path d="M2939 2618 c-2 -396 -38 -1118 -76 -1540 -8 -97 -13 -183 -11 -190 4
-10 61 -13 269 -12 l264 1 6 69 c4 38 7 114 8 169 2 200 36 452 74 554 59 161
268 234 386 135 57 -48 71 -144 51 -372 -5 -65 -15 -175 -20 -247 -6 -71 -15
-168 -20 -215 -5 -46 -7 -86 -5 -89 4 -3 518 -5 546 -2 3 1 9 70 13 154 3 83
11 217 16 297 5 80 14 224 21 320 18 288 -1 389 -93 486 -90 96 -234 144 -428
144 -195 0 -318 -41 -427 -144 l-66 -61 6 110 c4 61 13 193 22 295 8 102 15
193 15 203 0 16 -20 17 -275 17 l-275 0 -1 -82z"/>
<path d="M10569 2663 c0 -21 -2 -45 -4 -53 -1 -9 -8 -187 -14 -395 -7 -209
-14 -387 -16 -395 -2 -8 -9 -121 -15 -250 -5 -129 -17 -335 -26 -458 -9 -123
-13 -226 -9 -230 12 -12 536 -10 540 2 2 6 9 146 15 311 6 165 15 383 20 485
26 548 31 645 40 750 5 63 12 150 15 193 l6 77 -276 0 -275 0 -1 -37z"/>
<path d="M5350 2274 c-8 -2 -71 -11 -140 -19 -167 -20 -283 -41 -309 -54 -13
-7 -21 -21 -21 -36 0 -30 -18 -150 -36 -230 -7 -33 -11 -62 -8 -64 2 -2 21 1
42 8 231 76 362 104 497 105 125 1 157 -11 181 -71 12 -28 12 -38 0 -67 -24
-58 -69 -77 -296 -125 -184 -40 -238 -55 -337 -98 -190 -81 -308 -270 -274
-436 52 -251 238 -363 569 -344 149 9 149 9 168 76 10 31 30 96 46 145 16 49
27 91 24 93 -2 2 -34 -3 -72 -13 -126 -31 -214 9 -214 99 0 62 51 106 165 141
50 15 121 39 158 53 38 14 71 22 74 19 6 -5 -6 -210 -26 -476 -5 -52 -6 -97
-5 -99 3 -3 481 -5 520 -2 7 1 15 112 23 328 7 180 17 366 22 413 5 47 10 153
11 235 1 123 -2 157 -16 190 -52 118 -152 182 -342 219 -73 15 -358 21 -404
10z"/>
<path d="M7735 2260 c-248 -53 -400 -178 -495 -406 -83 -201 -91 -421 -20
-615 63 -171 210 -305 390 -355 83 -23 263 -44 378 -44 147 0 422 30 463 51
11 6 20 34 29 86 15 97 37 226 46 277 7 38 6 39 -17 32 -209 -64 -365 -90
-494 -82 -210 12 -315 109 -306 279 1 16 30 17 461 17 429 0 461 1 468 18 4 9
7 82 7 162 -1 124 -4 155 -24 212 -88 261 -316 391 -681 387 -76 -1 -157 -8
-205 -19z m301 -319 c23 -10 51 -29 62 -41 25 -27 54 -120 50 -158 l-3 -27
-210 0 -210 0 3 34 c12 150 176 252 308 192z"/>
<path d="M9350 2260 c-190 -26 -322 -49 -335 -60 -6 -5 -17 -51 -24 -102 -7
-51 -19 -122 -27 -158 -7 -36 -11 -67 -8 -69 2 -2 21 1 42 8 273 89 461 124
575 107 66 -10 107 -51 107 -106 0 -80 -46 -105 -300 -159 -178 -38 -237 -55
-327 -92 -155 -65 -253 -178 -284 -327 -22 -107 19 -238 105 -330 87 -93 194
-127 401 -127 77 0 156 3 176 8 40 8 39 6 83 162 10 33 24 77 32 99 8 21 13
40 11 42 -2 3 -35 -3 -73 -12 -56 -13 -78 -14 -120 -4 -108 23 -132 120 -47
191 16 14 70 38 119 53 49 15 120 39 157 53 38 14 71 23 74 19 6 -5 -9 -260
-27 -476 -4 -52 -6 -97 -4 -99 9 -9 516 -5 524 4 4 6 8 46 9 90 3 158 22 542
32 645 16 167 16 348 -1 402 -53 177 -242 260 -585 257 -82 -1 -211 -10 -285
-19z"/>
<path d="M297 2244 c-3 -3 6 -36 20 -72 48 -128 292 -870 362 -1102 18 -58 40
-125 50 -149 l17 -45 243 1 c133 0 245 4 248 7 4 3 16 34 29 69 12 34 41 114
64 177 23 63 53 149 66 190 14 41 28 82 31 90 3 8 23 64 44 125 36 105 59 142
59 94 0 -13 6 -50 14 -83 8 -34 22 -95 31 -136 36 -165 46 -206 55 -240 5 -19
22 -84 36 -145 15 -60 30 -119 34 -130 7 -19 16 -20 256 -18 137 1 252 2 255
2 4 1 25 47 48 104 24 56 49 116 57 134 8 17 14 34 14 37 0 5 12 34 60 141 37
83 54 124 65 154 7 20 22 56 33 81 11 25 33 74 47 110 15 36 33 79 40 95 8 17
23 53 35 80 12 28 25 59 30 70 5 11 18 43 29 71 11 28 29 71 40 95 26 57 81
190 81 195 0 2 -113 3 -252 2 l-251 -3 -57 -165 c-31 -91 -78 -228 -104 -305
-26 -77 -51 -149 -56 -160 -17 -39 -50 -145 -50 -160 0 -33 -18 -12 -24 28 -4
23 -11 56 -16 72 -6 17 -30 116 -55 220 -85 351 -106 440 -111 458 -5 16 -24
17 -267 15 l-261 -3 -129 -390 c-71 -214 -131 -396 -134 -404 -5 -21 -15 -7
-23 36 -7 36 -37 151 -75 288 -10 33 -23 83 -30 110 -7 28 -28 104 -45 170
-18 66 -35 131 -38 145 -10 50 -9 50 -267 50 -133 0 -244 -3 -248 -6z"/>
</g>
</svg>
