<svg xmlns="http://www.w3.org/2000/svg" width="124" height="24" viewBox="0 0 124 24">
  <defs>
    <style>
      .cls-1 {
        fill: #5c2fa7;
      }
    </style>
  </defs>
  <g id="LOGO" transform="translate(-86.596 -233.757)">
    <path id="路径_14804" data-name="路径 14804" class="cls-1" d="M544.027,286.89a1.916,1.916,0,0,0,.6-1.65,1.488,1.488,0,0,0-.079-.38l-.051-.125-.011,0-.844.287-1.434.486h0l0,0-4.056,1.388a1.766,1.766,0,0,0-.437.217,1.728,1.728,0,0,0-.653,1.529,2.629,2.629,0,0,0,.129.5l.046.113a.006.006,0,0,1,0,0,.032.032,0,0,1,0,.008l.856-.291,4.83-1.65.022-.006h0l.641-.218a1.811,1.811,0,0,0,.437-.218" transform="translate(-366.959 -41.424)"/>
    <path id="路径_14805" data-name="路径 14805" class="cls-1" d="M528.331,332.779l-.013,0-.858.269-1.46.457h0l-2.92.929a1.742,1.742,0,0,0-.448.212,1.86,1.86,0,0,0-.713,1.59,2.924,2.924,0,0,0,.109.535l.041.123v0a.036.036,0,0,1,0,.008l.87-.272,2.633-.826h0l1.072-.348.022-.007.653-.2a1.776,1.776,0,0,0,.448-.213,2.08,2.08,0,0,0,.669-1.72,1.7,1.7,0,0,0-.065-.406Z" transform="translate(-354.62 -80.46)"/>
    <path id="路径_14806" data-name="路径 14806" class="cls-1" d="M597.082,333.946l-1.332-.709h0l-3.417-1.823a1.731,1.731,0,0,0-.463-.168,2.035,2.035,0,0,0-1.7.58,3.157,3.157,0,0,0-.335.439l-.066.113v0l-.005.008.795.422,2.4,1.276h0l1.728.929.019.01.6.317a1.776,1.776,0,0,0,.464.168,2.27,2.27,0,0,0,1.765-.7,1.732,1.732,0,0,0,.266-.32l.071-.123-.01-.006Z" transform="translate(-409.901 -79.189)"/>
    <path id="路径_14807" data-name="路径 14807" class="cls-1" d="M548.479,298.91h.935a1.715,1.715,0,0,0,.411-.05h.007l.014,0c.031-.008.06-.023.09-.034l.033-.013.08-.035,0,0a.374.374,0,0,0,.056-.642l-.163-.13-.754-.6-.22-.176h0l0,0-1.962-1.553a1.545,1.545,0,0,0-.356-.212,2,2,0,0,0-1.564.113,2.735,2.735,0,0,0-.381.265l-.078.072s0,0,0,0l-.007,0,.582.464,1.282,1.024h-9.8l7.719-2.621a2.045,2.045,0,0,0,.446-.208,1.715,1.715,0,0,0,.617-1.539,1.245,1.245,0,0,0-.081-.351l-.051-.115-.013,0-.861.278L533.6,296.7a1.96,1.96,0,0,0-.446.208,1.56,1.56,0,0,0-.666,1.428,2.2,2.2,0,0,0,.13.463l.054.115h7.673v2.363a.96.96,0,0,1-.806.951c-.316.049-1.046.1-1.046.1a1.62,1.62,0,0,0-.269.052,1.85,1.85,0,0,0-1.119,1.256,2.972,2.972,0,0,0-.066.523v.136l.855,0,.6,0h.374a5.1,5.1,0,0,0,1.963-.359,2.732,2.732,0,0,0,1.142-.69,1.521,1.521,0,0,0,.435-1.047V298.91Z" transform="translate(-363.285 -47.747)"/>
    <path id="路径_14808" data-name="路径 14808" class="cls-1" d="M530.77,243.066a2.158,2.158,0,0,0,.94-1.5,1.976,1.976,0,0,0,.042-.41l-.007-.141h-.01l-.758.046-1.288.078v0h0l-1.786.108v-.656h0V239.1h3.452v-.116a2.962,2.962,0,0,0-.048-.445,1.519,1.519,0,0,0-.825-1.07,1.054,1.054,0,0,0-.339-.057H527.9v-1.932a1.95,1.95,0,0,0-.061-.481,1.773,1.773,0,0,0-1.127-1.169,3.467,3.467,0,0,0-.572-.069h-.123v2.514h0v4.984c0,.032,0,.063.006.095l-1.631.1V237.3a1.967,1.967,0,0,0-.061-.481,1.774,1.774,0,0,0-1.127-1.169,2.255,2.255,0,0,0-.469-.068h-.122v2.387h0a.006.006,0,0,1,0,0v3.588l-1.247.075a1.3,1.3,0,0,0-.412.094,1.89,1.89,0,0,0-.947,1.366,3.428,3.428,0,0,0-.035.548s.005.247.005.255l10.38-.74a1.273,1.273,0,0,0,.411-.094" transform="translate(-353.063 0)"/>
    <path id="路径_14809" data-name="路径 14809" class="cls-1" d="M595.976,243.821H590.96A.792.792,0,0,1,590.2,243v-.516l.5-.229.017-.008L594,240.738s0,0,0,0h0l1.145-.525.683-.314,0-.008v0l-.042-.107a2.735,2.735,0,0,0-.23-.425,1.561,1.561,0,0,0-1.32-.668,1.346,1.346,0,0,0-.392.112l-.512.235h0l-.017.008-3.115,1.43v-2.408a1.256,1.256,0,0,0-.062-.388,1.748,1.748,0,0,0-1.154-1.111,2.441,2.441,0,0,0-.48-.066h-.125v7a2.241,2.241,0,0,0,1.837,2.266,2.123,2.123,0,0,0,.273.023h4.76a1.357,1.357,0,0,0,.347-.048c.025-.006.052-.009.077-.018a2.026,2.026,0,0,0,1.031-1.374,1.71,1.71,0,0,0,.061-.388v-.135h-.788Z" transform="translate(-408.771 -2.23)"/>
    <path id="路径_14810" data-name="路径 14810" class="cls-1" d="M647.117,241.493a1.949,1.949,0,0,0,.334.439,2.256,2.256,0,0,0,2.013.309,1.836,1.836,0,0,0,.422-.172l.134-.084a.117.117,0,0,1-.006-.012l-.936-1.7-.987-1.768a1.977,1.977,0,0,0-.333-.439,2.021,2.021,0,0,0-1.885-.39,3.381,3.381,0,0,0-.551.252l-.122.077h0l-.009.006.5.889Z" transform="translate(-455.132 -3.128)"/>
    <path id="路径_14811" data-name="路径 14811" class="cls-1" d="M680.573,264.716h-3.131v-4.338a1.164,1.164,0,0,0-.076-.41,1.988,1.988,0,0,0-1.416-.992,4.148,4.148,0,0,0-.591-.058h-.152v5.8h-2.446a1.172,1.172,0,0,0-.4.071,1.87,1.87,0,0,0-.969,1.327,3.778,3.778,0,0,0-.056.552v.134h0v.009h3.87v7.723c0,.007,0,.013,0,.019h0v.569a1.154,1.154,0,0,0,.075.409c.178.478.956.853,1.565.993a2.344,2.344,0,0,0,.442.058h.152v-2.028h0V266.81h2.446a1.175,1.175,0,0,0,.4-.071,2.472,2.472,0,0,0,1.026-1.879v-.144h-.739Z" transform="translate(-476.401 -20.382)"/>
    <path id="路径_14812" data-name="路径 14812" class="cls-1" d="M647.388,285.093a3.709,3.709,0,0,0-.544-.068c-1.2,0-.981-1.869-1-2.722v-8.652h.97a1.255,1.255,0,0,0,.38-.06c.443-.142.79-1.014.919-1.5a1.567,1.567,0,0,0,.056-.353v-.122h-5.151a1.231,1.231,0,0,0-.38.06,1.622,1.622,0,0,0-.919,1.133,6.337,6.337,0,0,0-.055.72v.124H643.7V282.3a9.624,9.624,0,0,0,.275,2.893c.615,1.528,1.232,1.757,2.9,1.851.093.005,1.624.005,1.624.005h.014v-.163a2.163,2.163,0,0,0-.071-.469,1.679,1.679,0,0,0-1.051-1.328" transform="translate(-452.262 -30.71)"/>
    <path id="路径_14813" data-name="路径 14813" class="cls-1" d="M690.4,261.887a1.8,1.8,0,0,0-1.223-1.314,1.658,1.658,0,0,0-.188-.044.648.648,0,0,0-.108-.012l-.315-.012c-.672,0-.615-.9-.615-1.58V244.907a3.561,3.561,0,0,0-3.529-3.583h-3.556l-1.779-.013-1.528,0a2.1,2.1,0,0,0-.545.078,1.644,1.644,0,0,0-.639.378,2.54,2.54,0,0,0-.684,1.122,3.508,3.508,0,0,0-.078.624v.152l8.809.009a1.229,1.229,0,0,1,1.218,1.237v14.018c0,3.031.981,3.582,2.926,3.582l1.909.008v-.161a2.006,2.006,0,0,0-.077-.467" transform="translate(-479.876 -6.142)"/>
    <path id="路径_14814" data-name="路径 14814" class="cls-1" d="M544.027,286.888a1.916,1.916,0,0,0,.6-1.65,1.5,1.5,0,0,0-.079-.381l-.051-.125-.011,0-.844.286-1.434.487h0l-4.056,1.388a1.8,1.8,0,0,0-.437.218,1.727,1.727,0,0,0-.653,1.529,2.609,2.609,0,0,0,.129.5l.046.114v0l0,.009.856-.291,4.83-1.65a.139.139,0,0,0,.022-.006l.641-.218a1.8,1.8,0,0,0,.437-.217" transform="translate(-366.959 -41.423)"/>
    <path id="路径_14815" data-name="路径 14815" class="cls-1" d="M528.331,332.777l-.013,0-.858.268-1.46.457h0l0,0-2.92.929a1.74,1.74,0,0,0-.448.212,1.858,1.858,0,0,0-.713,1.59,2.94,2.94,0,0,0,.109.535l.041.123v0l0,.009.87-.272,2.633-.827v0l0,0,1.072-.347.022-.007h0l.653-.2a1.8,1.8,0,0,0,.448-.212,2.081,2.081,0,0,0,.669-1.72,1.687,1.687,0,0,0-.065-.406Z" transform="translate(-354.62 -80.459)"/>
    <path id="路径_14816" data-name="路径 14816" class="cls-1" d="M597.082,333.946l-1.332-.708h0l-3.417-1.824a1.753,1.753,0,0,0-.463-.168,2.033,2.033,0,0,0-1.7.58,3.1,3.1,0,0,0-.335.439l-.066.113v0l-.005.008.795.421,2.4,1.277h0l1.728.929a.2.2,0,0,1,.019.01l.6.316a1.759,1.759,0,0,0,.464.169,2.27,2.27,0,0,0,1.765-.7,1.674,1.674,0,0,0,.266-.32l.071-.122-.01-.006Z" transform="translate(-409.901 -79.189)"/>
    <path id="路径_14817" data-name="路径 14817" class="cls-1" d="M548.479,298.908h.935a1.733,1.733,0,0,0,.411-.05l.007,0,.014,0c.031-.008.06-.023.09-.033l.033-.013c.029-.012.053-.023.08-.036l0,0a.374.374,0,0,0,.056-.642l-.163-.13-.754-.6-.22-.177,0,0-1.962-1.554a1.522,1.522,0,0,0-.356-.211,2,2,0,0,0-1.564.112,2.781,2.781,0,0,0-.381.265l-.078.072h0l-.007.006.582.463,1.282,1.024h-9.8l7.719-2.621a1.968,1.968,0,0,0,.446-.208,1.713,1.713,0,0,0,.617-1.539,1.238,1.238,0,0,0-.081-.351l-.051-.116-.013,0-.861.277L533.6,296.694a1.952,1.952,0,0,0-.446.208,1.56,1.56,0,0,0-.666,1.427,2.177,2.177,0,0,0,.13.463l.054.115h7.673v2.363a.96.96,0,0,1-.806.951c-.316.049-1.046.1-1.046.1a1.589,1.589,0,0,0-.269.052,1.848,1.848,0,0,0-1.119,1.256,2.969,2.969,0,0,0-.066.523v.136h.855l.6,0h.374a5.079,5.079,0,0,0,1.963-.36,2.72,2.72,0,0,0,1.142-.689,1.521,1.521,0,0,0,.435-1.047v-3.289Z" transform="translate(-363.285 -47.745)"/>
    <path id="路径_14818" data-name="路径 14818" class="cls-1" d="M530.77,243.068a2.159,2.159,0,0,0,.94-1.5,1.982,1.982,0,0,0,.042-.411l-.007-.141h-.01l-.758.046-1.288.078h0l-1.786.108v-.656h0V239.1h3.452v-.116a2.97,2.97,0,0,0-.048-.445,1.517,1.517,0,0,0-.825-1.069,1.038,1.038,0,0,0-.339-.057H527.9v-1.932a1.957,1.957,0,0,0-.061-.482,1.772,1.772,0,0,0-1.127-1.168,3.338,3.338,0,0,0-.572-.069h-.123v2.512h0v4.985c0,.032,0,.062.006.094l-1.631.1V237.3a1.966,1.966,0,0,0-.061-.482,1.773,1.773,0,0,0-1.127-1.168,2.255,2.255,0,0,0-.469-.069h-.122v2.388h0v3.59l-1.247.076a1.286,1.286,0,0,0-.412.093,1.893,1.893,0,0,0-.947,1.367,3.42,3.42,0,0,0-.035.547s.005.247.005.256l10.38-.74a1.3,1.3,0,0,0,.411-.094" transform="translate(-353.063 -0.002)"/>
    <path id="路径_14819" data-name="路径 14819" class="cls-1" d="M595.976,243.818H590.96A.793.793,0,0,1,590.2,243v-.516l.5-.23h0l.017-.008L594,240.736h0l1.145-.526.683-.313,0-.008a0,0,0,0,0,0,0l-.042-.107a2.71,2.71,0,0,0-.23-.425,1.559,1.559,0,0,0-1.32-.669,1.386,1.386,0,0,0-.392.112l-.512.236h0l-.017.008-3.115,1.43v-2.409a1.252,1.252,0,0,0-.062-.387,1.751,1.751,0,0,0-1.154-1.112,2.452,2.452,0,0,0-.48-.066h-.125v6.995a2.241,2.241,0,0,0,1.837,2.267,2.065,2.065,0,0,0,.273.023h4.76a1.4,1.4,0,0,0,.347-.047c.025-.007.052-.01.077-.018a2.022,2.022,0,0,0,1.031-1.374,1.708,1.708,0,0,0,.061-.387v-.135h-.788Z" transform="translate(-408.771 -2.228)"/>
    <path id="路径_14820" data-name="路径 14820" class="cls-1" d="M647.117,241.494a1.934,1.934,0,0,0,.334.439,2.257,2.257,0,0,0,2.013.31,1.873,1.873,0,0,0,.422-.172l.134-.084c0-.008,0-.006-.006-.013l-.936-1.7-.987-1.767a1.936,1.936,0,0,0-.333-.439,2.019,2.019,0,0,0-1.885-.39,3.229,3.229,0,0,0-.551.252l-.122.077,0,0-.009.006.5.888Z" transform="translate(-455.132 -3.129)"/>
    <path id="路径_14821" data-name="路径 14821" class="cls-1" d="M680.573,264.715h-3.131v-4.338a1.156,1.156,0,0,0-.076-.409,1.988,1.988,0,0,0-1.416-.993,4.338,4.338,0,0,0-.591-.059h-.152v5.8h-2.446a1.171,1.171,0,0,0-.4.07,1.872,1.872,0,0,0-.969,1.327,3.793,3.793,0,0,0-.056.553v.143h2.532v0h1.339v7.724c0,.007,0,.012,0,.019h0v.568a1.161,1.161,0,0,0,.075.41c.178.477.956.853,1.565.992a2.276,2.276,0,0,0,.442.059h.152v-2.028h0v-7.743h2.446a1.169,1.169,0,0,0,.4-.07,2.471,2.471,0,0,0,1.026-1.879v-.144h-.739Z" transform="translate(-476.401 -20.38)"/>
    <path id="路径_14822" data-name="路径 14822" class="cls-1" d="M647.388,285.094a3.767,3.767,0,0,0-.544-.068c-1.2,0-.981-1.87-1-2.722v-8.651h.97a1.261,1.261,0,0,0,.38-.06c.443-.142.79-1.014.919-1.5a1.573,1.573,0,0,0,.056-.352v-.123h-5.151a1.22,1.22,0,0,0-.38.06,1.621,1.621,0,0,0-.919,1.132,6.337,6.337,0,0,0-.055.721v.123H643.7V282.3a9.627,9.627,0,0,0,.275,2.894c.615,1.528,1.232,1.757,2.9,1.851.093.005,1.624.005,1.624.005h.014v-.162a2.148,2.148,0,0,0-.071-.469,1.679,1.679,0,0,0-1.051-1.329" transform="translate(-452.262 -30.711)"/>
    <path id="路径_14823" data-name="路径 14823" class="cls-1" d="M690.4,261.885a1.8,1.8,0,0,0-1.223-1.315c-.061-.018-.124-.032-.188-.044a.79.79,0,0,0-.108-.012l-.315-.011c-.672,0-.615-.9-.615-1.581V244.9a3.56,3.56,0,0,0-3.529-3.583h-3.556l-1.779-.014-1.528,0a1.984,1.984,0,0,0-.237.017,1.964,1.964,0,0,0-.308.062,1.663,1.663,0,0,0-.639.377,2.542,2.542,0,0,0-.684,1.122,3.517,3.517,0,0,0-.078.624v.152l8.809.008a1.229,1.229,0,0,1,1.218,1.237v14.018c0,3.032.981,3.583,2.926,3.583l1.909.008v-.162a2,2,0,0,0-.077-.466" transform="translate(-479.876 -6.14)"/>
    <path id="路径_14824" data-name="路径 14824" class="cls-1" d="M373,255.5c0-2.652-4.043-2.658-4.043-.048,0,3.857-1.378,7.095-5.95,7.095-3.071,0-5.587-1.823-5.587-5.439,0-.333-.025-5.75-.025-5.748a2.924,2.924,0,0,0-.986-2.519l-3.2-3.3,0,11.322a9.652,9.652,0,0,0,9.782,9.862c5.11,0,10.007-3.589,10.007-11.221" transform="translate(-217.23 -9.586)"/>
    <path id="路径_14825" data-name="路径 14825" class="cls-1" d="M394.7,256.76c0,2.652,4.043,2.658,4.043.048,0-3.857,1.393-7.095,5.966-7.095,3.07,0,5.572,1.823,5.572,5.439,0,.333.025,5.751.025,5.748a2.926,2.926,0,0,0,.986,2.518l3.2,3.3V255.4a9.64,9.64,0,0,0-9.768-9.862c-5.11,0-10.022,3.589-10.022,11.221" transform="translate(-251.037 -9.583)"/>
    <path id="路径_14826" data-name="路径 14826" class="cls-1" d="M208.713,242.658v-.552l-3.856,3.98a4.5,4.5,0,0,0-1.018,1.631,4.6,4.6,0,0,0-.171,1.4v14.867s0,.006,0,.009v.553l3.856-3.981a3.847,3.847,0,0,0,1.188-3.031V242.668s0-.006,0-.009" transform="translate(-95.367 -6.791)"/>
    <path id="路径_14827" data-name="路径 14827" class="cls-1" d="M248.965,256.128l7.274-10.75h-4.311a2.565,2.565,0,0,0-2.078,1.243l0,0-3.69,5.455-3.7-5.467a2.519,2.519,0,0,0-2.06-1.226h-4.324l7.274,10.75-7.274,10.751H240.4a2.521,2.521,0,0,0,2.06-1.227l3.7-5.467,3.69,5.456,0-.005a2.566,2.566,0,0,0,2.078,1.243h4.311Z" transform="translate(-121.794 -9.452)"/>
    <path id="路径_14828" data-name="路径 14828" class="cls-1" d="M107.391,266.968l-1.448-3.146a1.534,1.534,0,0,0-1.449-.868H94.954c2.819-4.2,11.77-17.576,11.77-17.576H87.36l1.448,3.145a1.533,1.533,0,0,0,1.449.869h8.1c-4.38,6.5-11.757,17.576-11.757,17.576Z" transform="translate(0 -9.453)"/>
    <path id="路径_14829" data-name="路径 14829" class="cls-1" d="M373,255.506c0-2.653-4.043-2.658-4.043-.048,0,3.858-1.378,7.1-5.95,7.1-3.071,0-5.587-1.823-5.587-5.44,0-.333-.025-5.75-.025-5.747a2.923,2.923,0,0,0-.986-2.518l-3.2-3.3,0,11.322a9.651,9.651,0,0,0,9.782,9.861c5.11,0,10.007-3.587,10.007-11.221" transform="translate(-217.23 -9.588)"/>
    <path id="路径_14830" data-name="路径 14830" class="cls-1" d="M394.7,256.761c0,2.653,4.043,2.658,4.043.048,0-3.858,1.393-7.1,5.966-7.1,3.07,0,5.572,1.823,5.572,5.44,0,.332.025,5.75.025,5.748a2.923,2.923,0,0,0,.986,2.517l3.2,3.3V255.4a9.639,9.639,0,0,0-9.768-9.862c-5.11,0-10.022,3.588-10.022,11.22" transform="translate(-251.037 -9.585)"/>
    <path id="路径_14831" data-name="路径 14831" class="cls-1" d="M208.713,242.657V242.1l-3.856,3.981a4.491,4.491,0,0,0-1.018,1.63,4.591,4.591,0,0,0-.171,1.4v14.868s0,.006,0,.009v.552l3.856-3.98a3.848,3.848,0,0,0,1.188-3.032V242.666s0-.006,0-.009" transform="translate(-95.367 -6.789)"/>
    <path id="路径_14832" data-name="路径 14832" class="cls-1" d="M248.965,256.126l7.274-10.751h-4.311a2.567,2.567,0,0,0-2.078,1.243l0-.005-3.69,5.456-3.7-5.467a2.521,2.521,0,0,0-2.06-1.227h-4.324l7.274,10.751-7.274,10.75H240.4a2.519,2.519,0,0,0,2.06-1.227l3.7-5.467,3.69,5.455,0,0a2.566,2.566,0,0,0,2.078,1.242h4.311Z" transform="translate(-121.794 -9.45)"/>
    <path id="路径_14833" data-name="路径 14833" class="cls-1" d="M107.391,266.966l-1.448-3.145a1.533,1.533,0,0,0-1.449-.868H94.954c2.819-4.2,11.77-17.576,11.77-17.576H87.36l1.448,3.145a1.534,1.534,0,0,0,1.449.869h8.1c-4.38,6.5-11.757,17.575-11.757,17.575Z" transform="translate(0 -9.452)"/>
  </g>
</svg>
