<svg width="11" height="11" viewBox="0 0 11 11" fill="none" xmlns="http://www.w3.org/2000/svg">
<path d="M0.421667 4.03333H6.71L4.36333 1.68667C4.29 1.60111 4.25333 1.50333 4.25333 1.39333C4.25333 1.28333 4.29 1.18556 4.36333 1.1L5.35333 0.128333C5.43889 0.0427773 5.53667 0 5.64667 0C5.75667 0 5.85444 0.0427773 5.94 0.128333L10.8717 5.06C10.9572 5.14556 11 5.24333 11 5.35333C11 5.46333 10.9572 5.56111 10.8717 5.64667L5.94 10.5783C5.85444 10.6639 5.75667 10.7067 5.64667 10.7067C5.53667 10.7067 5.43889 10.6639 5.35333 10.5783L4.36333 9.60667C4.29 9.52111 4.25333 9.42333 4.25333 9.31333C4.25333 9.20333 4.29 9.10556 4.36333 9.02L6.875 6.50833H0.421667C0.299444 6.50833 0.198612 6.46861 0.119167 6.38917C0.0397218 6.30972 0 6.20889 0 6.08667V4.43667C0 4.32667 0.0397218 4.23194 0.119167 4.1525C0.198612 4.07305 0.299444 4.03333 0.421667 4.03333Z" fill="#1A194D"/>
</svg>
