<svg width="480" height="141" viewBox="0 0 480 141" fill="none" xmlns="http://www.w3.org/2000/svg">
<g clip-path="url(#clip0_2026_41539)">
<path d="M83.2284 34.0414L93.3789 16.4241C96.3334 11.2645 94.5964 4.66382 89.4319 1.70437C84.2675 -1.24734 77.6607 0.488047 74.6985 5.64772L64.4936 23.265C42.8045 16.4241 18.502 25.2948 6.66875 45.8095C-0.868572 58.8481 -1.7991 73.8545 2.78377 87.0094L21.5728 54.4399C25.861 46.9638 32.8865 41.6337 41.2381 39.3715C49.5896 37.1093 58.2901 38.2714 65.7731 42.6176C81.2045 51.5424 86.5395 71.3599 77.6064 86.7769C68.6733 102.194 48.8994 107.524 33.4061 98.5993L44.1925 79.9439C49.357 82.8956 55.9637 81.1602 58.9259 76.0005C61.8804 70.8409 60.1434 64.2402 54.9789 61.2807C49.8145 58.329 43.2077 60.0644 40.2455 65.2241L5.90881 124.738C2.95437 129.898 4.69136 136.499 9.85582 139.458C15.0203 142.41 21.6271 140.675 24.5893 135.515L34.7941 117.898C56.4833 124.738 80.7857 115.868 92.619 95.3532C104.452 74.9004 99.9857 49.4584 83.2206 34.0491L83.2284 34.0414Z" fill="#575C90"/>
<path d="M293.195 46.2666C279.509 46.2666 268.606 56.5782 268.606 70.6007C268.606 84.6233 279.509 94.9348 293.195 94.9348C306.882 94.9348 317.785 84.6233 317.785 70.6007C317.785 56.5782 306.882 46.2666 293.195 46.2666ZM400.207 46.2666C386.52 46.2666 375.617 56.5782 375.617 70.6007C375.617 84.6233 386.52 94.9348 400.207 94.9348C413.893 94.9348 424.796 84.6233 424.796 70.6007C424.796 56.5782 413.893 46.2666 400.207 46.2666ZM440.46 46.437V94.2996H449.626V74.4279C449.626 71.0113 448.928 65.7897 448.928 65.7897C448.928 65.7897 452.231 70.0197 454.612 72.2819L478.511 94.7644H479.496V46.9019H470.33V66.7736C470.33 70.0197 470.966 75.4118 470.966 75.4118C470.966 75.4118 467.717 71.0656 465.398 68.9196L441.445 46.437H440.46ZM128.879 46.8399V94.3538H138.68V78.7663H145.582C155.267 78.7663 163.27 73.901 163.27 62.776C163.27 51.6509 155.267 46.8399 145.582 46.8399H128.879ZM177.6 46.8399V94.2996H210.021V85.7234H187.401V74.7145H206.485V66.3087H187.401V55.4161H209.036V46.8399H177.6ZM226.437 46.8399V94.2996H257.703V85.7234H236.185V46.8399H226.437ZM328.284 46.8399V55.4161H341.8V94.2996H351.602V55.4161H365.172V46.8399H328.284ZM293.195 54.9513C301.834 54.9513 307.696 61.7301 307.696 70.6007C307.696 79.4713 301.842 86.2502 293.195 86.2502C284.549 86.2502 278.694 79.4713 278.694 70.6007C278.694 61.7301 284.549 54.9513 293.195 54.9513ZM400.207 54.9513C408.845 54.9513 414.707 61.7301 414.707 70.6007C414.707 79.4713 408.853 86.2502 400.207 86.2502C391.56 86.2502 385.706 79.4713 385.706 70.6007C385.706 61.7301 391.56 54.9513 400.207 54.9513ZM138.68 55.4703H145.295C149.994 55.4703 153.181 57.4381 153.181 62.776C153.181 68.1139 150.11 70.1901 145.295 70.1901H138.68V55.4703Z" fill="#575C90"/>
</g>
<defs>
<clipPath id="clip0_2026_41539">
<rect width="480" height="141" fill="white"/>
</clipPath>
</defs>
</svg>
