<svg width="90" height="15" viewBox="0 0 90 15" fill="none" xmlns="http://www.w3.org/2000/svg">
<g clip-path="url(#clip0_2556_42292)">
<mask id="mask0_2556_42292" style="mask-type:luminance" maskUnits="userSpaceOnUse" x="0" y="0" width="20" height="15">
<path d="M19.9327 0.335815H0.832031V14.6641H19.9327V0.335815Z" fill="white"/>
</mask>
<g mask="url(#mask0_2556_42292)">
<path fill-rule="evenodd" clip-rule="evenodd" d="M7.52009 0.335815H16.1152C17.1273 0.337045 18.0976 0.739637 18.8133 1.45529C19.5289 2.17094 19.9315 3.14121 19.9327 4.1533V14.6642H18.0316V12.7531C18.0309 12.245 17.8288 11.758 17.4695 11.3988C17.1103 11.0395 16.6233 10.8374 16.1152 10.8367H15.155V14.6595H4.64885C3.63683 14.6583 2.66662 14.2557 1.95108 13.54C1.23553 12.8243 0.833085 11.854 0.832031 10.842V7.01988C0.833085 6.00793 1.23555 5.03772 1.95111 4.32216C2.66668 3.60659 3.63689 3.20413 4.64885 3.20307H7.52009V0.335815ZM4.64885 12.7584H13.2539V10.8367H11.3376C10.3255 10.8357 9.35525 10.4332 8.63959 9.71765C7.92392 9.0021 7.52131 8.03193 7.52009 7.01988V5.10418H4.64885C4.14093 5.10471 3.65397 5.30671 3.29482 5.66587C2.93567 6.02499 2.73366 6.51199 2.73314 7.01988V10.842C2.73366 11.35 2.93565 11.837 3.29478 12.1963C3.65391 12.5555 4.14087 12.7577 4.64885 12.7584ZM16.1152 8.9356C16.7885 8.93488 17.45 9.11326 18.0316 9.45249V4.1533C18.0309 3.64532 17.8288 3.15836 17.4695 2.79923C17.1103 2.4401 16.6232 2.23811 16.1152 2.23759H9.42187V7.01988C9.42237 7.52782 9.62436 8.01476 9.98353 8.37393C10.3427 8.73304 10.8296 8.93504 11.3376 8.9356H16.1152ZM16.6786 6.30326C16.6786 6.96287 16.1438 7.49765 15.4842 7.49765C14.8245 7.49765 14.2898 6.96287 14.2898 6.30326C14.2898 5.6436 14.8245 5.10883 15.4842 5.10883C16.1438 5.10883 16.6786 5.6436 16.6786 6.30326Z" fill="#35D7B8"/>
</g>
</g>
<g clip-path="url(#clip1_2556_42292)">
<mask id="mask1_2556_42292" style="mask-type:luminance" maskUnits="userSpaceOnUse" x="24" y="2" width="65" height="11">
<path d="M88.7208 2.29327H24.9336V12.4418H88.7208V2.29327Z" fill="white"/>
</mask>
<g mask="url(#mask1_2556_42292)">
<path fill-rule="evenodd" clip-rule="evenodd" d="M58.204 8.49759C58.204 6.16384 59.5531 4.55669 61.8118 4.55669C62.8125 4.55669 63.6154 4.98137 64.0553 5.60313V2.29327H65.9047V12.3177H64.0553V11.3629C63.6154 12.0264 62.7667 12.4391 61.8423 12.4391C59.5531 12.4391 58.204 10.832 58.204 8.49759ZM64.1761 8.49759C64.1761 7.08818 63.3572 6.16384 62.1144 6.16384C60.8716 6.16384 60.0534 7.08553 60.0534 8.49759C60.0534 9.90965 60.8722 10.832 62.1151 10.832C63.3579 10.832 64.1767 9.90765 64.1767 8.49759H64.1761ZM35.0131 4.67816H33.1492V12.3178H35.0124V8.14926C35.0124 7.02784 35.7404 6.209 36.7861 6.209C37.7417 6.209 38.3787 6.93693 38.3787 7.9827V12.3178H40.2427V7.58855C40.2427 5.79958 39.1186 4.55673 37.3933 4.55673C36.3017 4.55673 35.4378 5.02653 35.0131 5.86063V4.67816ZM31.6031 12.3171V7.40673C31.6031 5.67881 30.2388 4.55672 28.2985 4.55938C26.3131 4.55938 25.0245 5.74185 24.9336 7.25743H26.6011C26.631 6.57528 27.2222 5.95419 28.2076 5.95419C29.193 5.95419 29.769 6.48437 29.769 7.22757C29.769 7.53081 29.5872 7.74249 29.2083 7.74249H27.7982C26.0855 7.74249 24.9336 8.66748 24.9336 10.1525C24.9336 11.4717 25.9641 12.4419 27.4803 12.4419C28.5712 12.4419 29.4505 11.9389 29.769 11.1811V12.3171H31.6031ZM29.769 8.96809V9.08887C29.769 10.2408 29.0868 11.0596 27.9176 11.057C27.2202 11.057 26.7352 10.6628 26.7352 10.0716C26.7352 9.40803 27.266 8.96809 28.0563 8.96809H29.769ZM48.9884 9.77103C48.7004 11.3934 47.2757 12.4392 45.3966 12.4392C42.8949 12.4392 41.5008 10.4684 41.5008 8.46776C41.5008 6.45186 42.7436 4.55673 45.2446 4.55673C47.8066 4.55673 48.9606 6.42134 48.9606 8.24015C48.9606 8.49765 48.9453 8.72526 48.93 8.8772H43.2897C43.4264 10.1048 44.2147 10.8931 45.3972 10.8931C46.3521 10.8931 46.9732 10.4989 47.1702 9.77103H48.9884ZM47.0939 7.64761H43.3351C43.5324 6.49657 44.1992 5.95154 45.2446 5.95021C46.3514 5.95021 47.0183 6.67748 47.0939 7.64761ZM53.7176 4.55673C51.3381 4.55673 49.8371 6.31517 49.8371 8.49765C49.8371 10.6808 51.3381 12.4392 53.7176 12.4365C55.6911 12.4365 57.1734 11.2388 57.4163 9.57126H55.5364C55.3546 10.3324 54.6725 10.832 53.7933 10.832C52.49 10.832 51.7773 9.83137 51.7773 8.49765C51.7773 7.16387 52.4748 6.16388 53.7634 6.16388C54.6426 6.16388 55.3852 6.70933 55.5218 7.46712H57.3672C57.204 5.70867 55.6419 4.55673 53.7176 4.55673ZM71.2702 4.55673C68.9358 4.55673 67.2683 6.22426 67.2683 8.49765C67.2683 10.7716 68.9378 12.4392 71.2702 12.4392C73.5893 12.4392 75.2569 10.771 75.2569 8.49765C75.2569 6.22426 73.5893 4.55673 71.2702 4.55673ZM71.2702 6.16388C72.5283 6.16388 73.377 7.11875 73.377 8.49765C73.377 9.8772 72.5283 10.832 71.2702 10.832C69.9955 10.832 69.1468 9.87653 69.1468 8.49765C69.1468 7.11875 69.9968 6.16388 71.2702 6.16388ZM78.4891 2.29327V4.67812H80.6126V6.23948H78.4891V9.57387C78.4891 10.3469 78.8985 10.7411 79.5959 10.7411H80.6109V12.3177H79.3836C77.7161 12.3177 76.6251 11.3476 76.6251 9.6502V2.29327H78.4891ZM85.1287 12.4392C87.0081 12.4392 88.4326 11.3934 88.7209 9.77103H86.9026C86.7053 10.4989 86.0842 10.8931 85.1292 10.8931C83.947 10.8931 83.1587 10.1048 83.022 8.8772H88.662C88.6776 8.72526 88.6926 8.49765 88.6926 8.24015C88.6926 6.42134 87.5387 4.55673 84.977 4.55673C82.4759 4.55673 81.2331 6.45186 81.2331 8.46776C81.2331 10.4684 82.627 12.4392 85.1287 12.4392ZM83.0676 7.64761H86.8259C86.7503 6.67748 86.0837 5.95021 84.977 5.95021C83.9348 5.95154 83.2648 6.49657 83.0676 7.64761Z" fill="#6C6C6C"/>
</g>
</g>
<defs>
<clipPath id="clip0_2556_42292">
<rect width="19.4444" height="15" fill="white" transform="translate(0.832031)"/>
</clipPath>
<clipPath id="clip1_2556_42292">
<rect width="64.4444" height="10.5556" fill="white" transform="translate(24.7227 2.22223)"/>
</clipPath>
</defs>
</svg>
