<?xml version="1.0" standalone="no"?>
<!DOCTYPE svg PUBLIC "-//W3C//DTD SVG 20010904//EN"
 "http://www.w3.org/TR/2001/REC-SVG-20010904/DTD/svg10.dtd">
<svg version="1.0" xmlns="http://www.w3.org/2000/svg"
 width="150" height="50" viewBox="0 0 574.000000 244.000000"
 preserveAspectRatio="xMidYMid meet">

<g transform="translate(0.000000,244.000000) scale(0.100000,-0.100000)"
fill="#000000" stroke="none">
<path d="M1200 1195 l0 -525 160 0 160 0 0 28 c0 24 -14 193 -35 417 l-6 60
71 14 c39 7 73 11 75 9 2 -1 16 -121 32 -265 l28 -263 112 0 113 0 0 400 0
400 -229 0 -228 0 -6 48 c-4 26 -9 82 -13 125 l-7 77 -113 0 -114 0 0 -525z"/>
<path d="M3026 1638 c-6 -85 -36 -877 -36 -935 l0 -33 161 0 161 0 -7 88 c-5
78 -45 912 -45 948 0 11 -21 14 -114 14 l-114 0 -6 -82z"/>
<path d="M5297 1248 c-10 -260 -20 -497 -24 -525 l-5 -53 162 0 163 0 -7 172
c-4 95 -11 254 -16 353 -5 99 -12 258 -16 353 l-7 172 -117 0 -116 0 -17 -472z"/>
<path d="M230 1456 c0 -29 57 -673 66 -738 l6 -48 114 0 113 0 10 38 c5 20 27
110 47 200 21 89 41 162 44 162 3 0 25 -90 49 -200 l45 -200 113 0 c62 0 113
4 113 8 0 5 16 179 35 386 19 208 35 387 35 397 0 17 -8 19 -79 19 l-80 0 -5
-42 c-3 -24 -13 -119 -22 -213 -8 -93 -17 -171 -19 -173 -1 -2 -9 28 -18 65
-8 37 -30 134 -48 216 l-33 147 -87 0 -87 0 -53 -215 c-29 -118 -54 -213 -56
-212 -1 2 -9 75 -18 162 -8 88 -17 184 -21 213 l-5 52 -80 0 c-76 0 -79 -1
-79 -24z"/>
<path d="M2090 1385 l0 -85 43 0 c44 0 248 16 330 25 l47 6 0 -40 c0 -47 15
-43 -237 -67 l-183 -18 0 -268 0 -268 24 0 c22 0 316 32 414 45 40 6 42 5 42
-19 l0 -26 120 0 120 0 0 131 c0 126 -1 131 -20 126 -20 -5 -20 0 -20 192 0
109 -3 232 -6 274 l-7 77 -333 0 -334 0 0 -85z m444 -362 c6 -38 8 -93 4 -93
-2 0 -55 -9 -118 -20 -63 -11 -116 -20 -117 -20 -2 0 -3 36 -3 79 l0 80 43 4
c23 2 74 4 113 5 l71 2 7 -37z"/>
<path d="M3490 1065 l0 -405 355 0 355 0 0 95 0 95 -210 0 -210 0 -10 26 c-6
14 -10 37 -10 52 l0 27 177 -3 c97 -2 196 -1 220 3 l43 6 0 255 0 254 -355 0
-355 0 0 -405z m491 150 l16 -70 -36 -7 c-20 -4 -78 -7 -128 -7 -104 -1 -96
-8 -107 90 l-5 47 92 10 c155 16 149 19 168 -63z"/>
<path d="M4380 1385 l0 -85 43 0 c23 1 114 7 202 14 88 8 161 12 163 11 2 -1
5 -18 9 -37 6 -42 20 -39 -239 -64 l-178 -18 0 -268 0 -268 23 0 c12 0 117 11
232 25 116 14 211 25 211 25 1 0 5 -11 8 -25 6 -25 7 -25 121 -25 l115 0 0
131 c0 126 -1 130 -20 124 -20 -6 -20 -2 -20 269 l0 276 -335 0 -335 0 0 -85z
m442 -389 c4 -33 6 -61 4 -63 -5 -5 -238 -44 -242 -41 -1 2 0 38 3 80 l6 77
41 4 c23 2 72 3 111 3 l70 -1 7 -59z"/>
</g>
</svg>
