<?xml version="1.0" standalone="no"?><!DOCTYPE svg PUBLIC "-//W3C//DTD SVG 1.1//EN" "http://www.w3.org/Graphics/SVG/1.1/DTD/svg11.dtd"><svg t="1700044930149" class="icon" viewBox="0 0 1024 1024" version="1.1" xmlns="http://www.w3.org/2000/svg" p-id="5906" xmlns:xlink="http://www.w3.org/1999/xlink" width="200" height="200"><path d="M492.21 502.45a32.56 32.56 0 0 1 42.65 7.46L537 513l49 79.31h194.2a32.56 32.56 0 0 1 3.81 64.89l-3.81 0.23H586.08a65.11 65.11 0 0 1-52.48-26.57l-2.9-4.3-49-79.31a32.56 32.56 0 0 1 10.51-44.8zM96.58 169.07H288a65.11 65.11 0 0 1 52.48 26.57l2.9 4.3 58.9 95.23a32.56 32.56 0 0 1-53.2 37.34l-2.18-3.13-58.9-95.2H96.58a32.56 32.56 0 0 1-3.81-64.89l3.81-0.23z" p-id="5907" fill="#b0b9ef"></path><path d="M949.45 648.86l-114.6 105.06a32.56 32.56 0 0 1-54.57-24V519.8a32.56 32.56 0 0 1 54.57-24l114.6 105.06a32.56 32.56 0 0 1 2 46q-0.96 1.05-2 2zM288 657.42a65.11 65.11 0 0 0 55.35-30.86l242.76-392.38h194.17v72.5a32.56 32.56 0 0 0 54.57 24l114.6-105.06a32.56 32.56 0 0 0 2-46l-2-2-114.6-105.05a32.56 32.56 0 0 0-54.57 24v72.5h-194.2a65.11 65.11 0 0 0-55.35 30.86L288 592.31H96.58a32.56 32.56 0 1 0 0 65.11H288zM64 960V812h68.11c38.29 0 67 5.23 87.76 16 29.86 15.49 36.13 39.21 36.13 56.38 0 16.56-6.56 39.94-37.81 57.29C196 954 166.82 960 129 960z m63-38.63c29.61 0 52.31-4 67.45-12C210 901.24 212 891.9 212 884.68c0-28-44.67-33.9-82.15-33.9h-22.43v70.59zM447.44 960l-20.27-36.31h-65.08L341.71 960h-43l84.84-148h23.33l83.82 148z m-41.84-75l-11-19.75L383.7 885zM604.55 960V850.78h-71.22V812h192v38.78h-71.21V960h-49.57zM916.77 960l-20.27-36.31h-65.08L811 960h-43l84.84-148h23.33L960 960z m-41.83-75l-11-19.75L853 885z" p-id="5908" fill="#b0b9ef"></path></svg>