<?xml version="1.0" encoding="utf-8"?>
<!-- Generator: Adobe Illustrator 24.1.3, SVG Export Plug-In . SVG Version: 6.00 Build 0)  -->
<svg version="1.1" id="图层_1" xmlns="http://www.w3.org/2000/svg" xmlns:xlink="http://www.w3.org/1999/xlink" x="180px" y="45px"
	 viewBox="0 0 390 80" style="enable-background:new 0 0 390 80;" xml:space="preserve">
<style type="text/css">
	.st0{fill:#D20029;}
	.st1{fill:#FF0040;}
	.st2{fill:#831A2D;}
</style>
<g>
	<g>
		<g>
			<path d="M364.8,30.5h-9.5l5.7,12.3h-26l9.3-19.9h-9.5l-9.9,21c-1.3,2.8,0.7,6,3.9,6h38.4c3.1,0,5.2-3.3,3.9-6L364.8,30.5z"/>
			<g>
				<polygon points="318.7,26.4 329.8,2.6 339.4,2.6 328.3,26.4 				"/>
				<polygon points="377.3,26.4 366.2,2.6 356.6,2.6 367.7,26.4 				"/>
			</g>
			<path d="M282.7,57.9c2.9,0,5.4,1.1,7.5,3.1c2,2,3,4.6,3,7.5c0,1.9-0.5,3.6-1.4,5.3c-1,1.7-2.2,3-3.9,3.9c-1.6,1-3.4,1.4-5.3,1.4
				c-2.9,0-5.3-1.1-7.4-3.1c-2-2-3-4.6-3-7.5c0-1.9,0.5-3.6,1.4-5.3c1-1.7,2.2-2.9,3.7-3.9C279,58.3,280.7,57.9,282.7,57.9z
				 M276.8,68.4c0,1.8,0.6,3.3,1.7,4.5s2.5,1.8,4.2,1.8s3.1-0.6,4.2-1.8c1.1-1.2,1.7-2.7,1.7-4.5s-0.6-3.3-1.7-4.5
				c-1.1-1.2-2.5-1.8-4.2-1.8s-3.1,0.6-4.2,1.8C277.2,65.1,276.8,66.6,276.8,68.4z"/>
			<polygon points="127.2,68.5 135.7,58.3 130.1,58.3 122.9,66.9 122.9,58.3 118.3,58.3 118.3,78.6 122.9,78.6 122.9,69.9 
				130.1,78.6 135.7,78.6 127.1,68.5 			"/>
			<path d="M138.4,78.6V58.3h4.5v20.4L138.4,78.6L138.4,78.6z"/>
			<path d="M160.5,71.8V58.3h4.3v20.4h-4.6l-8.8-13.4v13.4h-4.3V58.3h4.6L160.5,71.8z"/>
			<path d="M197.7,61.7c-0.8,0-1.6,0.2-2,0.6s-0.7,0.8-0.7,1.4s0.2,1.1,0.7,1.4c0.5,0.4,1.6,0.7,3,1.3c2.3,0.8,3.9,1.7,4.7,2.8
				c0.8,1,1.3,2.3,1.3,3.9c0,1.7-0.7,3-2,4.2c-1.4,1.1-3.3,1.7-5.5,1.7c-1.2,0-2.7-0.2-4-0.7c-1.4-0.5-2.5-1.1-3.5-1.9l2.5-3.1
				c1.8,1.3,3.5,1.9,5.2,1.9c1,0,1.7-0.1,2.2-0.5s0.7-0.8,0.7-1.3c0-0.7-0.2-1.2-0.8-1.6c-0.5-0.4-1.2-0.7-2.4-1.1
				c-1.3-0.5-2.5-1-3.4-1.4c-1-0.5-1.7-1.2-2.3-2s-1-1.9-1-3.3c0-1.7,0.7-3.1,2-4.3s3.1-1.7,5.2-1.7c2.3,0,4.5,0.6,6.5,1.7l-1.9,3.4
				C200.5,62,199.2,61.7,197.7,61.7z"/>
			<path d="M217.4,57.9c2.9,0,5.4,1.1,7.5,3.1c2,2,3.1,4.6,3.1,7.5c0,1.9-0.5,3.7-1.4,5.3c-1,1.7-2.3,3-3.9,3.9
				c-1.6,1-3.4,1.4-5.3,1.4c-2.9,0-5.4-1.1-7.5-3.1c-2-2-3-4.6-3-7.5c0-1.9,0.5-3.7,1.4-5.3c1-1.7,2.2-2.9,3.9-3.9
				C213.7,58.3,215.5,57.9,217.4,57.9z M211.5,68.5c0,1.8,0.6,3.3,1.7,4.5s2.5,1.8,4.2,1.8s3.1-0.6,4.3-1.8c1.1-1.2,1.7-2.7,1.7-4.5
				s-0.6-3.4-1.7-4.5c-1.1-1.2-2.5-1.8-4.3-1.8c-1.7,0-3.1,0.6-4.2,1.8C212.1,65.1,211.5,66.7,211.5,68.5z"/>
			<path d="M235.3,62.2v4.3h8.3l-0.7,3.9h-7.6v8.3h-4.5V58.3h13.5l-0.7,4C243.6,62.2,235.3,62.2,235.3,62.2z"/>
			<path d="M300.4,62.2v4.3h8.3l-0.7,3.9h-7.6v8.3h-4.5V58.3h13.5l-0.7,4C308.7,62.2,300.4,62.2,300.4,62.2z"/>
			<path d="M316.6,62.2v4.3h8.3l-0.7,3.9h-7.6v8.3h-4.5V58.3h13.5l-0.7,4C325,62.2,316.6,62.2,316.6,62.2z"/>
			<path d="M256.2,62.2v16.5h-4.5V62.2h-5.3v-4h15.9l-0.7,4H256.2z"/>
			<path d="M328.4,78.6V58.3h4.5v20.4L328.4,78.6L328.4,78.6z"/>
			<g>
				<path d="M346.8,79.1c-6,0-10.6-4.7-10.6-10.6l0,0c0-5.9,4.5-10.6,10.7-10.6c3.9,0,6.3,1.3,8.1,3.1l-2.7,3c-1.7-1.4-3.5-2-5.5-2
					c-3.5,0-6,2.9-6,6.4l0,0c0,3.5,2.5,6.5,6,6.5c2.4,0,4-0.7,5.7-2.2l2.7,2.8C353,77.7,350.6,79.1,346.8,79.1z"/>
			</g>
			<path d="M357.6,78.6V58.3h14.1l-0.8,4h-8.8v4.3h9.3l-0.8,3.9h-8.4v4.3h9.2v4L357.6,78.6L357.6,78.6z"/>
			<g>
				<path d="M178.7,79.1c-6.4,0-10.6-4.5-10.6-10.6l0,0c0-5.9,4.2-10.6,10.6-10.6c3.6,0,6,1,8.2,2.8l-2.2,3.1
					c-1.8-1.2-3.3-1.9-6-1.9c-3.9,0-6.4,3-6.4,6.5l0,0c0,3.7,2.8,6.5,6.5,6.5c1.7,0,3.1-0.4,4.3-1.2v-2.9h-4.6l1-3.9h8.2v8.9
					C185.4,77.7,182.5,79.1,178.7,79.1z"/>
			</g>
			<path d="M235.1,10.4V43h-14.6V0.9l-8.6,1.3v40.6h-13.7c-0.4,0-0.7-0.4-0.7-0.7V9l-8.6,1.3v33v0.8c0,3.3,2.7,5.8,5.8,5.8h48.2
				c0.5,0,0.8-0.4,0.8-0.8V9L235.1,10.4z"/>
			<path d="M174.1,22.5v-5.9l4.1,1.3v-7.5l-29.4-9.3c-0.4-0.1-0.7-0.1-1.1,0l-29.4,9.3v7.5l4.1-1.3v5.9h21.3v4.3h-21.3v6.9h21.3v9.4
				h-9.6l-2.7-6.6h-8.9l2.7,6.6h-6.9v7h59.8v-7h-6.7l2.7-6.6h-8.9l-2.7,6.6h-9.8v-9.4H174v-6.9h-21.3v-4.3
				C152.7,22.5,174.1,22.5,174.1,22.5z M148.2,8.4l22.8,7.2h-45.5L148.2,8.4z"/>
			<g>
				<path d="M312.9,23.4l-8.1-2v-9.9c0-2.9-2.4-5.3-5.3-5.3h-17.2l1.3-5.2h-9l-1.3,5.2h-15.2v7.2h13.4L262.1,50h9l9.4-36.6h14.9
					c0.5,0,0.8,0.4,0.8,0.8V43h-10.6l-1.7,7.1h20c0.5,0,0.8-0.4,0.8-0.8V29.9l8.1,2L312.9,23.4L312.9,23.4z"/>
				<polygon points="257.2,17.9 252.2,37.8 260.4,37.8 265.4,17.9 				"/>
			</g>
		</g>
		<g>
			<path class="st0" d="M55.6,79.1H1.7c-1.1,0-1.9-1-1.7-2l11.8-62.7c0.1-0.7,0.7-1.2,1.4-1.2H70l-12.1,64
				C57.7,78.3,56.7,79.1,55.6,79.1z"/>
			<path class="st1" d="M109,1.8c0.3-0.4,0-0.9-0.4-0.9H49c-0.8,0-1.5,0.6-1.6,1.3l-11.5,61l-0.4,1.9c0.3-0.6,0.9-1.4,2.2-1.4
				c0.3,0,0.2,0,0.2,0h58.9c0.5,0,0.9-0.5,0.7-1L85.8,33.3c-0.2-0.6-0.1-1.3,0.3-1.9L109,1.8z"/>
			<path class="st2" d="M58.6,73.8l1.9-10.1H37.6c-2.7,0-3.3,3.8-0.7,4.7l19.2,6.1c1.2,0.4,2,1.6,1.7,2.9L58.6,73.8z"/>
		</g>
	</g>
 </g>
</svg>
